<?xml version="1.0" standalone="no"?><!DOCTYPE svg PUBLIC "-//W3C//DTD SVG 1.1//EN" "http://www.w3.org/Graphics/SVG/1.1/DTD/svg11.dtd"><svg t="1733747388270" class="icon" viewBox="0 0 1024 1024" version="1.1" xmlns="http://www.w3.org/2000/svg" p-id="7680" data-spm-anchor-id="a313x.search_index.0.i15.6ca93a81NnH5qr" xmlns:xlink="http://www.w3.org/1999/xlink" width="200" height="200"><path d="M510.48 966.88c-247.4 0-448.68-201.28-448.68-448.68S263.04 69.48 510.48 69.48s448.68 201.28 448.68 448.68-201.28 448.72-448.68 448.72z m0-856.6c-224.92 0-407.88 182.96-407.88 407.88S285.6 926.04 510.48 926.04s407.88-182.96 407.88-407.88S735.4 110.28 510.48 110.28z" p-id="7681" fill="#515151"></path><path d="M793.92 421.88c-6.92-20.92-21.6-37.88-41.28-47.8a81.824 81.824 0 0 0-59.48-5.56 234.36 234.36 0 0 0-103.84-73.72h4.28c0-45.52-37-82.52-82.52-82.52s-82.52 37-82.52 82.52h4.28A234.268 234.268 0 0 0 329.32 368c-19.36-5-39.56-2.92-57.56 6.12a81.964 81.964 0 0 0-41.28 47.8c-13.68 41.36 7.32 85.92 47.04 102.2 1.76 40.52 14.8 80.52 36.6 115.44-3.48 13.08-21.6 90.04 24.2 120.6 14.8 9.88 26.12 15.8 35.12 18.2v25.36h275.08v-24.88c9.48-1.8 21.56-7.68 38.04-18.72 44-29.32 29.08-101.24 24.72-118.56 20.2-33.28 31.68-72.84 33.2-116.56 41.28-15.48 63.4-60.96 49.44-103.12z m-26.12 8.68c8.24 24.84-2.36 51.44-23.92 64.4-3.16-37.08-15.04-71.6-33.52-101.76 24.92-2.44 49.2 12.56 57.44 37.36z m-256.76-190.8c27.88 0 50.76 20.96 54.28 47.88-17.44-4.16-35.56-6.64-54.28-6.64s-36.84 2.44-54.28 6.64c3.52-26.92 26.36-47.88 54.28-47.88z m-254.44 190.8c7.96-24.04 31.04-38.68 55.16-37.4-18.24 29.72-30.12 63.68-33.48 100.2-19.96-13.48-29.6-38.88-21.68-62.8z m79.72 239.32c11.08 12.96 23.56 24.76 37.2 35.16v43.88c-4.44-2.12-10.76-5.64-19.88-11.72-18.96-12.56-20.2-43.4-17.32-67.32z m284.76 106.32h-220.08V721.2h220.08v55z m27.48-13.76v-7.36c1.4 1.48 2.92 3.76 2.92 7.36h-2.92z m22.8-25.2c-11.28 7.52-18.44 11.2-22.8 13.04v-43.28c15.04-10.04 28.52-21.68 40.24-34.8 2.48 22.28 1.68 52.32-17.44 65.04z m-53.88-43.56h-212.36c-61.08-38.84-100.4-108.56-100.4-178.8 0-113.76 92.56-206.32 206.32-206.32s206.32 92.56 206.32 206.32c0 79.76-36.4 144.68-99.88 178.8z" p-id="7682" fill="#515151"></path><path d="M511.04 377.32c-75.84 0-137.56 61.72-137.56 137.56s61.72 137.56 137.56 137.56 137.56-61.72 137.56-137.56-61.72-137.56-137.56-137.56z m0 27.52c47.72 0 88.32 30.6 103.52 73.16-26.48 5.96-42.76 24.48-56.2 40.04-13 15.08-21.6 24.36-33.6 24.36s-23.36 0-61.16-25.2c-17.8-11.88-32.52-10.4-41.76-7.08-8.32 3-14.96 8.52-20.4 14.72-0.28-3.28-0.52-6.6-0.52-9.96 0.08-60.68 49.44-110.04 110.12-110.04z m0 220.08c-44.16 0-82.2-26.2-99.72-63.8 3.6-8.92 10.96-21.92 19.88-25.12 1.76-0.64 7.2-2.56 17.2 4.08 41.52 27.68 57.84 29.8 76.4 29.8 25.2 0 40.76-18 54.44-33.88 12-13.92 23.56-27.08 41.32-31.2 0.32 3.32 0.52 6.68 0.52 10.08 0 60.64-49.36 110.04-110.04 110.04z" p-id="7683" fill="#515151"></path></svg>